<mxfile host="app.diagrams.net" modified="2023-11-05T09:28:10.146Z" agent="Mozilla/5.0 (Windows NT 10.0; Win64; x64) AppleWebKit/537.36 (KHTML, like Gecko) Chrome/118.0.0.0 Safari/537.36" etag="P7djCx7absWhTfvJYftu" version="21.3.7" type="device">
  <diagram name="Page-1" id="NUu120S_SKjXWxllY62b">
    <mxGraphModel dx="1400" dy="598" grid="1" gridSize="10" guides="1" tooltips="1" connect="1" arrows="1" fold="1" page="1" pageScale="1" pageWidth="850" pageHeight="1100" math="0" shadow="0">
      <root>
        <mxCell id="0" />
        <mxCell id="1" parent="0" />
        <mxCell id="RfW7aDGCEf4Ac-aunJTx-2" value="&lt;font style=&quot;font-size: 18px;&quot;&gt;ID&lt;/font&gt;" style="ellipse;whiteSpace=wrap;html=1;" vertex="1" parent="1">
          <mxGeometry x="40" y="240" width="120" height="80" as="geometry" />
        </mxCell>
        <mxCell id="RfW7aDGCEf4Ac-aunJTx-3" value="&lt;font style=&quot;font-size: 18px;&quot;&gt;Number&lt;/font&gt;" style="ellipse;whiteSpace=wrap;html=1;" vertex="1" parent="1">
          <mxGeometry x="170" y="240" width="120" height="80" as="geometry" />
        </mxCell>
        <mxCell id="RfW7aDGCEf4Ac-aunJTx-4" value="&lt;font style=&quot;font-size: 18px;&quot;&gt;Email&lt;/font&gt;" style="ellipse;whiteSpace=wrap;html=1;" vertex="1" parent="1">
          <mxGeometry x="540" y="240" width="120" height="80" as="geometry" />
        </mxCell>
        <mxCell id="RfW7aDGCEf4Ac-aunJTx-5" value="&lt;font style=&quot;font-size: 18px;&quot;&gt;Salary&lt;/font&gt;" style="ellipse;whiteSpace=wrap;html=1;" vertex="1" parent="1">
          <mxGeometry x="680" y="240" width="120" height="80" as="geometry" />
        </mxCell>
        <mxCell id="RfW7aDGCEf4Ac-aunJTx-6" value="&lt;font style=&quot;font-size: 18px;&quot;&gt;Name&lt;/font&gt;" style="ellipse;whiteSpace=wrap;html=1;" vertex="1" parent="1">
          <mxGeometry x="400" y="240" width="120" height="80" as="geometry" />
        </mxCell>
        <mxCell id="RfW7aDGCEf4Ac-aunJTx-7" value="&lt;font style=&quot;font-size: 18px;&quot;&gt;Department&lt;/font&gt;" style="rounded=1;whiteSpace=wrap;html=1;" vertex="1" parent="1">
          <mxGeometry x="290" y="380" width="120" height="60" as="geometry" />
        </mxCell>
        <mxCell id="RfW7aDGCEf4Ac-aunJTx-8" value="&lt;b&gt;&lt;font style=&quot;font-size: 18px;&quot;&gt;Employee&lt;/font&gt;&lt;/b&gt;" style="rounded=1;whiteSpace=wrap;html=1;" vertex="1" parent="1">
          <mxGeometry x="280" y="80" width="130" height="90" as="geometry" />
        </mxCell>
        <mxCell id="RfW7aDGCEf4Ac-aunJTx-9" value="" style="endArrow=classic;html=1;rounded=0;exitX=0.25;exitY=1;exitDx=0;exitDy=0;entryX=0.754;entryY=0.081;entryDx=0;entryDy=0;entryPerimeter=0;" edge="1" parent="1" source="RfW7aDGCEf4Ac-aunJTx-8" target="RfW7aDGCEf4Ac-aunJTx-2">
          <mxGeometry width="50" height="50" relative="1" as="geometry">
            <mxPoint x="330" y="370" as="sourcePoint" />
            <mxPoint x="380" y="320" as="targetPoint" />
          </mxGeometry>
        </mxCell>
        <mxCell id="RfW7aDGCEf4Ac-aunJTx-10" value="" style="endArrow=classic;html=1;rounded=0;entryX=0.5;entryY=0;entryDx=0;entryDy=0;exitX=0.383;exitY=1.004;exitDx=0;exitDy=0;exitPerimeter=0;" edge="1" parent="1" source="RfW7aDGCEf4Ac-aunJTx-8" target="RfW7aDGCEf4Ac-aunJTx-3">
          <mxGeometry width="50" height="50" relative="1" as="geometry">
            <mxPoint x="328" y="172" as="sourcePoint" />
            <mxPoint x="440" y="250" as="targetPoint" />
          </mxGeometry>
        </mxCell>
        <mxCell id="RfW7aDGCEf4Ac-aunJTx-11" value="" style="endArrow=classic;html=1;rounded=0;exitX=0.909;exitY=0.994;exitDx=0;exitDy=0;exitPerimeter=0;entryX=0.5;entryY=0;entryDx=0;entryDy=0;" edge="1" parent="1" source="RfW7aDGCEf4Ac-aunJTx-8" target="RfW7aDGCEf4Ac-aunJTx-5">
          <mxGeometry width="50" height="50" relative="1" as="geometry">
            <mxPoint x="410" y="300" as="sourcePoint" />
            <mxPoint x="460" y="250" as="targetPoint" />
          </mxGeometry>
        </mxCell>
        <mxCell id="RfW7aDGCEf4Ac-aunJTx-12" value="" style="endArrow=classic;html=1;rounded=0;exitX=0.819;exitY=1.002;exitDx=0;exitDy=0;exitPerimeter=0;entryX=0.261;entryY=0.054;entryDx=0;entryDy=0;entryPerimeter=0;" edge="1" parent="1" source="RfW7aDGCEf4Ac-aunJTx-8" target="RfW7aDGCEf4Ac-aunJTx-4">
          <mxGeometry width="50" height="50" relative="1" as="geometry">
            <mxPoint x="380" y="240" as="sourcePoint" />
            <mxPoint x="586" y="242" as="targetPoint" />
          </mxGeometry>
        </mxCell>
        <mxCell id="RfW7aDGCEf4Ac-aunJTx-13" value="" style="endArrow=classic;html=1;rounded=0;exitX=0.713;exitY=1.002;exitDx=0;exitDy=0;exitPerimeter=0;entryX=0.412;entryY=0.013;entryDx=0;entryDy=0;entryPerimeter=0;" edge="1" parent="1" source="RfW7aDGCEf4Ac-aunJTx-8" target="RfW7aDGCEf4Ac-aunJTx-6">
          <mxGeometry width="50" height="50" relative="1" as="geometry">
            <mxPoint x="370" y="250" as="sourcePoint" />
            <mxPoint x="420" y="200" as="targetPoint" />
          </mxGeometry>
        </mxCell>
        <mxCell id="RfW7aDGCEf4Ac-aunJTx-14" value="" style="endArrow=classic;html=1;rounded=0;exitX=0.5;exitY=1;exitDx=0;exitDy=0;entryX=0.5;entryY=0;entryDx=0;entryDy=0;" edge="1" parent="1" source="RfW7aDGCEf4Ac-aunJTx-8" target="RfW7aDGCEf4Ac-aunJTx-7">
          <mxGeometry width="50" height="50" relative="1" as="geometry">
            <mxPoint x="400" y="280" as="sourcePoint" />
            <mxPoint x="450" y="230" as="targetPoint" />
          </mxGeometry>
        </mxCell>
        <mxCell id="RfW7aDGCEf4Ac-aunJTx-15" value="&lt;font style=&quot;font-size: 18px;&quot;&gt;Name&lt;/font&gt;" style="ellipse;whiteSpace=wrap;html=1;" vertex="1" parent="1">
          <mxGeometry x="420" y="510" width="120" height="80" as="geometry" />
        </mxCell>
        <mxCell id="RfW7aDGCEf4Ac-aunJTx-16" value="&lt;font style=&quot;font-size: 18px;&quot;&gt;Number&lt;/font&gt;" style="ellipse;whiteSpace=wrap;html=1;" vertex="1" parent="1">
          <mxGeometry x="290" y="510" width="120" height="80" as="geometry" />
        </mxCell>
        <mxCell id="RfW7aDGCEf4Ac-aunJTx-17" value="&lt;font style=&quot;font-size: 18px;&quot;&gt;ID&lt;/font&gt;" style="ellipse;whiteSpace=wrap;html=1;" vertex="1" parent="1">
          <mxGeometry x="160" y="510" width="120" height="80" as="geometry" />
        </mxCell>
        <mxCell id="RfW7aDGCEf4Ac-aunJTx-18" value="" style="endArrow=classic;html=1;rounded=0;exitX=0.75;exitY=1;exitDx=0;exitDy=0;entryX=0.5;entryY=0;entryDx=0;entryDy=0;" edge="1" parent="1" source="RfW7aDGCEf4Ac-aunJTx-7" target="RfW7aDGCEf4Ac-aunJTx-15">
          <mxGeometry width="50" height="50" relative="1" as="geometry">
            <mxPoint x="370" y="540" as="sourcePoint" />
            <mxPoint x="420" y="490" as="targetPoint" />
          </mxGeometry>
        </mxCell>
        <mxCell id="RfW7aDGCEf4Ac-aunJTx-19" value="" style="endArrow=classic;html=1;rounded=0;exitX=0.5;exitY=1;exitDx=0;exitDy=0;entryX=0.5;entryY=0;entryDx=0;entryDy=0;" edge="1" parent="1" source="RfW7aDGCEf4Ac-aunJTx-7" target="RfW7aDGCEf4Ac-aunJTx-16">
          <mxGeometry width="50" height="50" relative="1" as="geometry">
            <mxPoint x="410" y="540" as="sourcePoint" />
            <mxPoint x="460" y="490" as="targetPoint" />
          </mxGeometry>
        </mxCell>
        <mxCell id="RfW7aDGCEf4Ac-aunJTx-20" value="" style="endArrow=classic;html=1;rounded=0;entryX=0.615;entryY=0.014;entryDx=0;entryDy=0;entryPerimeter=0;exitX=0.212;exitY=1.001;exitDx=0;exitDy=0;exitPerimeter=0;" edge="1" parent="1" source="RfW7aDGCEf4Ac-aunJTx-7" target="RfW7aDGCEf4Ac-aunJTx-17">
          <mxGeometry width="50" height="50" relative="1" as="geometry">
            <mxPoint x="300" y="450" as="sourcePoint" />
            <mxPoint x="460" y="490" as="targetPoint" />
          </mxGeometry>
        </mxCell>
      </root>
    </mxGraphModel>
  </diagram>
</mxfile>
